<?xml version="1.0" encoding="UTF-8"?>
<svg width="37px" height="34px" viewBox="0 0 37 34" version="1.1" xmlns="http://www.w3.org/2000/svg" xmlns:xlink="http://www.w3.org/1999/xlink">
    <!-- Generator: Sketch 49.3 (51167) - http://www.bohemiancoding.com/sketch -->
    <title>Group</title>
    <desc>Created with Sketch.</desc>
    <defs></defs>
    <g id="Symbols" stroke="none" stroke-width="1" fill="none" fill-rule="evenodd">
        <g id="headers/pageHeader_allLandingPages" transform="translate(-15.000000, -8.000000)">
            <g id="Page-1" transform="translate(15.000000, 8.000000)">
                <g id="Group">
                    <g id="Group-5" transform="translate(0.000000, 0.248000)">
                        <path d="M12.8945,23.792 C10.9355,23.792 9.3345,22.24 9.2765,20.312 L9.2755,20.312 L9.2755,4.09 L13.6065,4.09 L13.6065,1.714 L9.2755,1.714 L9.2755,0.415 L14.9065,0.415 L14.9065,5.39 L10.5755,5.39 L10.5755,20.204 C10.5755,21.466 11.6155,22.491 12.8945,22.491 C13.5525,22.491 14.1825,22.214 14.6235,21.73 L15.0605,21.25 L16.0215,22.125 L15.5835,22.605 C14.8975,23.359 13.9175,23.792 12.8945,23.792" id="Fill-1" fill="#221E1F"></path>
                        <path d="M17.8921,0.5762 L25.3271,0.5762 L25.3271,10.9402 L23.8321,12.9532 C25.2931,15.0742 26.0821,17.5042 26.1351,19.9942 C26.1361,20.0822 26.1451,20.1702 26.1451,20.2602 C26.1451,20.2792 26.1421,20.2992 26.1421,20.3192 C26.1351,21.8412 25.8391,23.2982 25.3271,24.6502 C24.0111,28.1292 21.1871,30.8882 17.6291,32.1842 C16.5371,32.5822 15.3801,32.8462 14.1741,32.9462 C13.8081,32.9732 13.4441,33.0002 13.0721,33.0002 C11.9401,33.0002 10.8441,32.8422 9.7941,32.5772 C4.1701,31.1552 0.0001,26.1792 0.0001,20.2602 C0.0001,17.4812 0.9511,14.8422 2.5841,12.6872 C3.1321,11.9182 3.7701,11.2462 4.4821,10.6762 C5.6351,9.6872 8.5921,8.7012 8.5921,8.7012 C9.4781,8.4932 10.4071,8.3732 11.3821,8.3732 C13.6661,8.3732 16.5331,9.1862 17.8921,11.1482 L17.8921,0.5762 Z M7.8831,20.6682 C7.8831,24.4472 10.1181,27.0292 13.0821,27.0292 C15.9981,27.0292 18.2331,24.8772 18.2331,20.6192 C18.2331,16.4572 15.9981,14.2582 13.0821,14.2582 C10.1181,14.2582 7.8831,16.8402 7.8831,20.6682 Z" id="Fill-3" fill="#C6BBA3"></path>
                    </g>
                    <polygon id="Fill-33" fill="#221E1F" points="15.5732 22.8662 14.6332 21.9682 23.3032 12.8832 28.0712 7.5802 28.0762 0.6622 36.3252 0.6622 36.3252 1.9622 29.3752 1.9622 29.3712 8.0792 24.2572 13.7662"></polygon>
                </g>
            </g>
        </g>
    </g>
</svg>