<?xml version="1.0" encoding="UTF-8"?>
<svg width="164px" height="34px" viewBox="0 0 164 34" version="1.1" xmlns="http://www.w3.org/2000/svg" xmlns:xlink="http://www.w3.org/1999/xlink">
    <!-- Generator: Sketch 49.1 (51147) - http://www.bohemiancoding.com/sketch -->
    <title>Page 1</title>
    <desc>Created with Sketch.</desc>
    <defs>
        <path d="M9.414,0.752 L9.414,6.54 C8.72,5.622 7.588,4.934 5.947,4.934 C2.736,4.934 0.346,7.431 0.346,11.436 C0.346,15.541 2.609,17.988 5.741,17.988 C7.434,17.988 8.669,17.377 9.49,16.203 L9.541,17.682 L12.263,17.682 L12.263,0.752 L9.414,0.752 Z M3.277,11.461 C3.277,8.885 4.354,7.203 6.331,7.203 C8.232,7.203 9.541,8.682 9.541,11.436 C9.541,14.24 8.206,15.719 6.331,15.719 C4.354,15.719 3.277,14.038 3.277,11.461 Z" id="path-1"></path>
        <path d="M0.441,0.752 L0.441,17.682 L3.293,17.682 L3.293,11.207 C3.293,8.91 4.088,7.279 6.271,7.279 C7.041,7.279 7.633,7.508 7.992,7.865 C8.557,8.426 8.686,9.346 8.686,10.67 L8.686,17.682 L11.536,17.682 L11.536,9.957 C11.536,8.349 11.253,7.279 10.712,6.488 C9.994,5.469 8.787,4.934 7.172,4.934 C5.373,4.934 4.012,5.622 3.293,6.744 L3.293,0.752 L0.441,0.752 Z" id="path-3"></path>
        <path d="M10.677,2.972 C10.113,1.877 9.164,0.934 7.031,0.934 C5.26,0.934 4.027,1.595 3.334,2.744 L3.334,1.188 L0.485,1.188 L0.485,13.682 L3.334,13.682 L3.334,7.157 C3.334,4.963 3.975,3.279 6.08,3.279 C6.928,3.279 7.495,3.533 7.879,3.992 C8.289,4.504 8.419,5.346 8.419,6.569 L8.419,13.682 L11.27,13.682 L11.27,7.157 C11.27,4.963 11.91,3.279 13.993,3.279 C14.889,3.279 15.453,3.533 15.814,4.018 C16.225,4.529 16.355,5.369 16.355,6.569 L16.355,13.682 L19.204,13.682 L19.204,5.957 C19.204,4.197 18.894,3.025 18.203,2.207 C17.535,1.418 16.404,0.934 14.967,0.934 C12.964,0.934 11.652,1.622 10.677,2.972 Z" id="path-5"></path>
        <polygon id="path-7" points="14.289 0.199 12.414 8.996 10.182 0.199 7.252 0.199 5.043 8.996 3.17 0.199 0.088 0.199 3.504 12.693 6.201 12.693 8.717 3.512 11.26 12.693 13.955 12.693 17.369 0.199"></polygon>
        <path d="M0.955,0.762 L0.955,17.693 L3.805,17.693 L3.805,11.219 C3.805,8.922 4.602,7.291 6.785,7.291 C7.555,7.291 8.146,7.52 8.504,7.877 C9.07,8.438 9.197,9.357 9.197,10.68 L9.197,17.693 L12.048,17.693 L12.048,9.967 C12.048,8.361 11.768,7.291 11.227,6.5 C10.51,5.479 9.3,4.944 7.684,4.944 C5.885,4.944 4.525,5.631 3.805,6.755 L3.805,0.762 L0.955,0.762 Z" id="path-9"></path>
        <path d="M0.148,7.472 C0.148,11.119 2.254,14 6.441,14 C9.854,14 11.68,11.986 12.271,10.125 L9.522,9.767 C9.084,10.889 8.187,11.729 6.389,11.729 C4.463,11.729 3.078,10.378 3.024,8.316 L12.475,8.316 C12.705,3.979 10.369,0.944 6.364,0.944 C2.64,0.944 0.148,3.621 0.148,7.472 Z M6.389,3.111 C8.11,3.111 9.498,4.311 9.574,6.221 L3.024,6.221 C3.127,4.053 4.719,3.111 6.389,3.111 Z" id="path-11"></path>
        <path d="M0.061,7.472 C0.061,11.119 2.166,14 6.353,14 C9.768,14 11.593,11.986 12.184,10.125 L9.434,9.767 C8.996,10.889 8.099,11.729 6.301,11.729 C4.375,11.729 2.99,10.378 2.938,8.316 L12.387,8.316 C12.617,3.979 10.281,0.944 6.278,0.944 C2.553,0.944 0.061,3.621 0.061,7.472 Z M6.301,3.111 C8.022,3.111 9.411,4.311 9.486,6.221 L2.938,6.221 C3.039,4.053 4.632,3.111 6.301,3.111 Z" id="path-13"></path>
        <polygon id="path-15" points="0.667 0.762 3.518 0.762 3.518 17.693 0.667 17.693"></polygon>
        <path d="M1.083,4.565 C1.083,6.91 2.881,7.805 5.088,8.264 L6.759,8.619 C8.069,8.902 9.171,9.258 9.171,10.278 C9.171,11.296 8.144,11.857 6.579,11.857 C4.754,11.857 3.779,10.811 3.549,9.46 L0.775,9.869 C1.03,12.139 3.162,14 6.477,14 C9.455,14 11.973,12.547 11.973,9.893 C11.973,7.447 9.79,6.734 7.218,6.172 L5.732,5.865 C4.55,5.611 3.779,5.177 3.779,4.385 C3.779,3.545 4.857,3.086 6.143,3.086 C7.732,3.086 8.865,3.827 9.144,5.049 L11.818,4.693 C11.328,2.244 8.992,0.944 6.346,0.944 C3.472,0.944 1.083,2.324 1.083,4.565 Z" id="path-17"></path>
    </defs>
    <g id="Symbols" stroke="none" stroke-width="1" fill="none" fill-rule="evenodd">
        <g id="headers/pageHeader_allLandingPages" transform="translate(-15.000000, -8.000000)">
            <g id="Page-1" transform="translate(15.000000, 8.000000)">
                <g id="Group-5" transform="translate(0.000000, 0.248000)">
                    <path d="M12.8945,23.792 C10.9355,23.792 9.3345,22.24 9.2765,20.312 L9.2755,20.312 L9.2755,4.09 L13.6065,4.09 L13.6065,1.714 L9.2755,1.714 L9.2755,0.415 L14.9065,0.415 L14.9065,5.39 L10.5755,5.39 L10.5755,20.204 C10.5755,21.466 11.6155,22.491 12.8945,22.491 C13.5525,22.491 14.1825,22.214 14.6235,21.73 L15.0605,21.25 L16.0215,22.125 L15.5835,22.605 C14.8975,23.359 13.9175,23.792 12.8945,23.792" id="Fill-1" fill="#221E1F"></path>
                    <path d="M17.8921,0.5762 L25.3271,0.5762 L25.3271,10.9402 L23.8321,12.9532 C25.2931,15.0742 26.0821,17.5042 26.1351,19.9942 C26.1361,20.0822 26.1451,20.1702 26.1451,20.2602 C26.1451,20.2792 26.1421,20.2992 26.1421,20.3192 C26.1351,21.8412 25.8391,23.2982 25.3271,24.6502 C24.0111,28.1292 21.1871,30.8882 17.6291,32.1842 C16.5371,32.5822 15.3801,32.8462 14.1741,32.9462 C13.8081,32.9732 13.4441,33.0002 13.0721,33.0002 C11.9401,33.0002 10.8441,32.8422 9.7941,32.5772 C4.1701,31.1552 0.0001,26.1792 0.0001,20.2602 C0.0001,17.4812 0.9511,14.8422 2.5841,12.6872 C3.1321,11.9182 3.7701,11.2462 4.4821,10.6762 C5.6351,9.6872 8.5921,8.7012 8.5921,8.7012 C9.4781,8.4932 10.4071,8.3732 11.3821,8.3732 C13.6661,8.3732 16.5331,9.1862 17.8921,11.1482 L17.8921,0.5762 Z M7.8831,20.6682 C7.8831,24.4472 10.1181,27.0292 13.0821,27.0292 C15.9981,27.0292 18.2331,24.8772 18.2331,20.6192 C18.2331,16.4572 15.9981,14.2582 13.0821,14.2582 C10.1181,14.2582 7.8831,16.8402 7.8831,20.6682 Z" id="Fill-3" fill="#C6BBA3"></path>
                </g>
                <g id="Group-8" transform="translate(32.000000, 9.248000)">
                    <mask id="mask-2" fill="white">
                        <use xlink:href="#path-1"></use>
                    </mask>
                    <g id="Clip-7"></g>
                    <polygon id="Fill-6" fill="#221E1F" mask="url(#mask-2)" points="-9.653 27.988 22.264 27.988 22.264 -9.248 -9.653 -9.248"></polygon>
                </g>
                <g id="Group-11" transform="translate(47.000000, 9.248000)">
                    <mask id="mask-4" fill="white">
                        <use xlink:href="#path-3"></use>
                    </mask>
                    <g id="Clip-10"></g>
                    <polygon id="Fill-9" fill="#221E1F" mask="url(#mask-4)" points="-9.559 27.684 21.536 27.684 21.536 -9.248 -9.559 -9.248"></polygon>
                </g>
                <g id="Group-14" transform="translate(61.000000, 13.248000)">
                    <mask id="mask-6" fill="white">
                        <use xlink:href="#path-5"></use>
                    </mask>
                    <g id="Clip-13"></g>
                    <polygon id="Fill-12" fill="#221E1F" mask="url(#mask-6)" points="-9.516 23.684 29.204 23.684 29.204 -9.066 -9.516 -9.066"></polygon>
                </g>
                <g id="Group-17" transform="translate(87.000000, 14.248000)">
                    <mask id="mask-8" fill="white">
                        <use xlink:href="#path-7"></use>
                    </mask>
                    <g id="Clip-16"></g>
                    <polygon id="Fill-15" fill="#221E1F" mask="url(#mask-8)" points="-9.912 22.693 27.369 22.693 27.369 -9.801 -9.912 -9.801"></polygon>
                </g>
                <g id="Group-20" transform="translate(105.000000, 9.248000)">
                    <mask id="mask-10" fill="white">
                        <use xlink:href="#path-9"></use>
                    </mask>
                    <g id="Clip-19"></g>
                    <polygon id="Fill-18" fill="#221E1F" mask="url(#mask-10)" points="-9.045 27.693 22.048 27.693 22.048 -9.238 -9.045 -9.238"></polygon>
                </g>
                <g id="Group-23" transform="translate(119.000000, 13.248000)">
                    <mask id="mask-12" fill="white">
                        <use xlink:href="#path-11"></use>
                    </mask>
                    <g id="Clip-22"></g>
                    <polygon id="Fill-21" fill="#221E1F" mask="url(#mask-12)" points="-9.854 24 22.49 24 22.49 -9.057 -9.854 -9.057"></polygon>
                </g>
                <g id="Group-26" transform="translate(133.000000, 13.248000)">
                    <mask id="mask-14" fill="white">
                        <use xlink:href="#path-13"></use>
                    </mask>
                    <g id="Clip-25"></g>
                    <polygon id="Fill-24" fill="#221E1F" mask="url(#mask-14)" points="-9.939 24 22.403 24 22.403 -9.057 -9.939 -9.057"></polygon>
                </g>
                <g id="Group-29" transform="translate(147.000000, 9.248000)">
                    <mask id="mask-16" fill="white">
                        <use xlink:href="#path-15"></use>
                    </mask>
                    <g id="Clip-28"></g>
                    <polygon id="Fill-27" fill="#221E1F" mask="url(#mask-16)" points="-9.333 27.693 13.518 27.693 13.518 -9.238 -9.333 -9.238"></polygon>
                </g>
                <g id="Group-32" transform="translate(152.000000, 13.248000)">
                    <mask id="mask-18" fill="white">
                        <use xlink:href="#path-17"></use>
                    </mask>
                    <g id="Clip-31"></g>
                    <polygon id="Fill-30" fill="#221E1F" mask="url(#mask-18)" points="-9.225 24 21.972 24 21.972 -9.057 -9.225 -9.057"></polygon>
                </g>
                <polygon id="Fill-33" fill="#221E1F" points="15.5732 22.8662 14.6332 21.9682 23.3032 12.8832 28.0712 7.5802 28.0762 0.6622 36.3252 0.6622 36.3252 1.9622 29.3752 1.9622 29.3712 8.0792 24.2572 13.7662"></polygon>
            </g>
        </g>
    </g>
</svg>