<?xml version="1.0" encoding="UTF-8"?>
<svg width="39px" height="29px" viewBox="0 0 39 29" version="1.1" xmlns="http://www.w3.org/2000/svg" xmlns:xlink="http://www.w3.org/1999/xlink">
    <!-- Generator: Sketch 49.3 (51167) - http://www.bohemiancoding.com/sketch -->
    <title>Page 1</title>
    <desc>Created with Sketch.</desc>
    <defs></defs>
    <g id="Symbols" stroke="none" stroke-width="1" fill="none" fill-rule="evenodd">
        <g id="buttons/quoteCart_withItems" transform="translate(0.000000, 1.000000)" stroke="#FE4E33" stroke-width="1.3">
            <g id="Page-1">
                <polyline id="Stroke-1" points="0.404255319 0.409090909 5.65229787 0.409090909 10.4920426 18.6136364 33.7140851 18.6136364 37.7905957 7.01018182"></polyline>
                <path d="M18.9691957,24.1479818 C18.9691957,25.6125273 17.7960468,26.7997091 16.3488128,26.7997091 C14.9015787,26.7997091 13.7284298,25.6125273 13.7284298,24.1479818 C13.7284298,22.6834364 14.9015787,21.4962545 16.3488128,21.4962545 C17.7960468,21.4962545 18.9691957,22.6834364 18.9691957,24.1479818 Z" id="Stroke-3"></path>
                <path d="M30.1027915,24.1479818 C30.1027915,25.6125273 28.9296426,26.7997091 27.4824085,26.7997091 C26.0351745,26.7997091 24.8620255,25.6125273 24.8620255,24.1479818 C24.8620255,22.6834364 26.0351745,21.4962545 27.4824085,21.4962545 C28.9296426,21.4962545 30.1027915,22.6834364 30.1027915,24.1479818 Z" id="Stroke-5"></path>
            </g>
        </g>
    </g>
</svg>