<svg width="515" height="466" viewBox="0 0 515 466" fill="none" xmlns="http://www.w3.org/2000/svg">
<path d="M310.912 367.182C300.912 381.492 264.962 373.912 264.962 373.912L237.102 347.842L233.352 344.312L239.642 330.952C239.642 330.952 241.642 331.502 245.072 332.482C263.082 337.712 319.352 355.152 310.912 367.182Z" fill="#EFB7B9"/>
<path opacity="0.1" d="M245.052 332.482C243.822 336.762 240.452 343.172 237.102 347.842L233.352 344.312L239.642 330.952C239.642 330.952 241.662 331.502 245.052 332.482Z" fill="black"/>
<path opacity="0.1" d="M176.032 284.292C176.032 284.292 170.842 294.922 174.032 294.202C177.222 293.482 176.032 284.292 176.032 284.292Z" fill="black"/>
<path d="M178.542 305.762L255.542 293.232V366.132L182.382 362.302L178.542 305.762Z" fill="#D6D0C2"/>
<path opacity="0.05" d="M178.542 305.762L255.542 293.232V366.132L182.382 362.302L178.542 305.762Z" fill="black"/>
<path d="M255.542 293.232L347.882 300.142L342.772 363.582L255.542 366.132V293.232Z" fill="#D6D0C2"/>
<path opacity="0.1" d="M255.542 293.232L347.882 300.142L342.772 363.582L255.542 366.132V293.232Z" fill="black"/>
<path d="M283.932 270.982L255.542 293.232L347.882 300.142L362.972 277.372L283.932 270.982Z" fill="#D6D0C2"/>
<path d="M150.662 281.462L219.982 273.022L255.542 293.232L178.542 305.762L150.662 281.462Z" fill="#D6D0C2"/>
<path d="M272.422 312.162V411.832L236.352 408.132L220.662 406.532L215.882 406.032L200.202 404.422L178.542 402.202V305.762L255.532 311.002L272.422 312.162Z" fill="#D6D0C2"/>
<path d="M347.882 300.142V397.342L318.972 402.892L304.912 405.592L272.422 411.832V312.162L347.882 300.142Z" fill="#D6D0C2"/>
<path opacity="0.05" d="M347.882 300.142V397.342L318.972 402.892L304.912 405.592L272.422 411.832V312.162L347.882 300.142Z" fill="black"/>
<path d="M150.662 326.742L178.542 305.762L272.422 312.162L258.602 335.442L150.662 326.742Z" fill="#D6D0C2"/>
<path opacity="0.1" d="M150.662 326.742L178.542 305.762L272.422 312.162L258.602 335.442L150.662 326.742Z" fill="white"/>
<path d="M347.882 300.142L272.422 312.162L296.982 334.162L377.812 320.602L347.882 300.142Z" fill="#D6D0C2"/>
<path opacity="0.1" d="M347.882 300.142L272.422 312.162L296.982 334.162L377.812 320.602L347.882 300.142Z" fill="white"/>
<path opacity="0.1" d="M318.972 402.892L304.912 405.592V384.822L318.082 381.502L318.972 402.892Z" fill="white"/>
<path opacity="0.1" d="M236.352 394.392V408.132L220.662 406.532V394.392H236.352Z" fill="white"/>
<path opacity="0.1" d="M215.882 398.722V406.032L200.202 404.422V398.722H215.882Z" fill="white"/>
<path opacity="0.1" d="M358.183 241.35C358.183 241.35 320.183 239.06 324.623 265.72C324.623 265.72 323.733 270.43 328.003 272.57C328.003 272.57 328.073 270.57 331.913 271.26C333.276 271.49 334.663 271.557 336.043 271.46C337.89 271.327 339.645 270.597 341.043 269.38V269.38C341.043 269.38 351.743 264.96 355.903 247.48C355.903 247.48 358.973 243.67 358.853 242.69L352.433 245.43C352.433 245.43 354.623 250.06 352.903 253.91C352.903 253.91 352.693 245.6 351.463 245.79C351.213 245.79 348.123 247.4 348.123 247.4C348.123 247.4 351.903 255.47 349.053 261.33C349.053 261.33 350.133 251.39 346.943 247.98L342.473 250.59C342.473 250.59 346.883 258.92 343.893 265.72C343.893 265.72 344.663 255.29 341.523 251.23L337.433 254.43C337.433 254.43 341.573 262.64 339.053 268.28C339.053 268.28 338.723 256.14 336.543 255.22C336.543 255.22 332.963 258.38 332.413 259.68C332.413 259.68 335.253 265.68 333.493 268.79C333.493 268.79 332.413 260.7 331.493 260.66C331.493 260.66 327.923 266.02 327.553 269.66C327.731 266.267 328.793 262.978 330.633 260.12C328.572 260.511 326.671 261.494 325.163 262.95C325.163 262.95 325.723 259.16 331.513 258.83C331.513 258.83 334.463 254.76 335.253 254.51C335.253 254.51 329.493 254.03 326.003 255.58C326.003 255.58 329.073 252.01 336.303 253.63L340.303 250.33C340.303 250.33 332.713 249.33 329.503 250.44C329.503 250.44 333.203 247.28 341.393 249.58L345.793 246.95C345.793 246.95 339.323 245.56 335.473 246.06C335.473 246.06 339.543 243.87 347.083 246.24L350.233 244.83C350.233 244.83 345.493 243.9 344.103 243.75C342.713 243.6 342.643 243.22 342.643 243.22C345.644 242.721 348.726 243.067 351.543 244.22C351.543 244.22 358.303 241.77 358.183 241.35Z" fill="#D6D0C2"/>
<path opacity="0.1" d="M127.332 217.681C127.332 217.681 136.082 180.591 109.042 180.461C109.042 180.461 104.552 178.781 101.722 182.621C101.722 182.621 103.652 183.031 102.342 186.691C101.889 187.985 101.587 189.327 101.442 190.691C101.248 192.549 101.666 194.421 102.632 196.021V196.021C102.632 196.021 105.162 207.321 121.632 214.401C121.632 214.401 124.872 218.081 125.852 218.121L124.252 211.331C124.252 211.331 119.312 212.701 115.812 210.331C115.812 210.331 124.042 211.541 124.052 210.331C124.052 210.081 123.052 206.771 123.052 206.771C123.052 206.771 114.462 209.111 109.162 205.301C109.162 205.301 118.772 208.061 122.682 205.511L120.882 200.591C120.882 200.591 111.882 203.521 105.722 199.411C105.722 199.411 115.872 201.951 120.412 199.551L117.962 194.971C117.962 194.971 109.162 197.651 104.032 194.201C104.032 194.201 116.032 195.941 117.332 193.961C117.332 193.961 114.832 189.891 113.642 189.131C113.642 189.131 107.282 190.911 104.482 188.641C104.482 188.641 112.632 188.951 112.822 188.091C112.822 188.091 108.152 183.661 104.592 182.661C107.909 183.416 110.973 185.022 113.482 187.321C113.445 185.225 112.799 183.185 111.622 181.451C111.622 181.451 115.262 182.651 114.622 188.451C114.622 188.451 118.122 192.051 118.232 192.871C118.232 192.871 119.682 187.281 118.752 183.571C118.752 183.571 121.752 187.211 118.922 194.061L121.482 198.611C121.482 198.611 123.802 191.311 123.212 187.951C123.212 187.951 125.702 192.131 122.032 199.811L123.882 204.601C123.882 204.601 126.352 198.461 126.512 194.601C126.512 194.601 127.982 198.981 124.352 206.011L125.212 209.351C125.212 209.351 126.932 204.841 127.312 203.501C127.692 202.161 128.082 202.151 128.082 202.151C128.067 205.193 127.204 208.171 125.592 210.751C125.592 210.751 126.902 217.731 127.332 217.681Z" fill="#FE4E33"/>
<path opacity="0.1" d="M44.1123 230.321C44.1123 230.321 13.5923 207.491 2.68232 232.221C2.68232 232.221 -0.64768 235.671 1.74232 239.801C1.74232 239.801 2.88235 238.191 5.74235 240.861C6.75537 241.803 7.87649 242.622 9.08232 243.301C10.7156 244.21 12.6012 244.561 14.4523 244.301V244.301C14.4523 244.301 25.8123 246.491 38.8923 234.181C38.8923 234.181 43.5624 232.681 44.0024 231.801L37.1123 230.591C37.1123 230.591 36.3923 235.661 32.8423 237.931C32.8423 237.931 37.2323 230.871 36.0923 230.361C35.8623 230.251 32.4223 229.861 32.4223 229.861C32.4223 229.861 31.1423 238.681 25.5423 242.011C25.5423 242.011 31.9124 234.301 31.1224 229.701L25.8923 229.421C25.8923 229.421 25.0023 238.811 18.7623 242.851C18.7623 242.851 25.1323 234.561 24.7623 229.441L19.5823 229.861C19.5823 229.861 18.5323 238.991 13.3223 242.311C13.3223 242.311 19.7123 231.991 18.4023 230.031C18.4023 230.031 13.6724 230.701 12.5024 231.481C12.5024 231.481 11.5923 238.021 8.39231 239.681C8.39231 239.681 11.9423 232.331 11.2223 231.821C11.2223 231.821 5.29232 234.331 2.96232 237.191C4.97787 234.452 7.67343 232.288 10.7823 230.911C8.84798 230.107 6.72116 229.884 4.66233 230.271C4.66233 230.271 7.20233 227.411 12.2223 230.321C12.2223 230.321 16.9223 228.551 17.7223 228.771C17.7223 228.771 13.1723 225.201 9.40232 224.581C9.40232 224.581 13.9423 223.281 19.0923 228.581L24.2823 228.051C24.2823 228.051 18.5123 223.051 15.2023 222.211C15.2023 222.211 20.0323 221.601 25.6023 228.021L30.7223 228.251C30.7223 228.251 26.0923 223.531 22.6023 221.831C22.6023 221.831 27.1923 222.231 32.1923 228.361L35.6023 228.911C35.6023 228.911 32.1523 225.531 31.0723 224.651C29.9923 223.771 30.1423 223.401 30.1423 223.401C32.9243 224.633 35.3096 226.613 37.0323 229.121C37.0323 229.121 43.9823 230.731 44.1123 230.321Z" fill="#D6D0C2"/>
<path opacity="0.1" d="M324.647 26.0011C324.647 26.0011 312.447 -10.1089 289.437 4.08113C289.437 4.08113 284.737 5.08113 284.367 9.79113C284.367 9.79113 286.217 9.11113 287.037 12.9111C287.342 14.2628 287.802 15.5749 288.407 16.8211C289.234 18.4983 290.581 19.863 292.247 20.7111V20.7111C292.247 20.7111 300.367 28.9611 318.127 26.2311C318.127 26.2311 322.817 27.6511 323.677 27.1611L318.677 22.2511C318.677 22.2511 315.217 26.0211 310.997 25.8711C310.997 25.8711 318.627 22.5511 317.997 21.4811C317.867 21.2711 315.257 19.0011 315.257 19.0011C315.257 19.0011 309.197 25.5311 302.697 25.1011C302.697 25.1011 312.307 22.3611 314.267 18.1011L310.127 14.9111C310.127 14.9111 304.067 22.1311 296.637 21.9111C296.637 21.9111 306.637 18.7011 309.167 14.2611L304.667 11.6711C304.667 11.6711 298.667 18.6011 292.447 18.3811C292.447 18.3811 303.567 13.5111 303.597 11.1511C303.597 11.1511 299.327 9.02113 297.917 9.00113C297.917 9.00113 293.457 13.8711 289.917 13.4311C289.917 13.4311 296.997 9.38113 296.697 8.55113C296.697 8.55113 290.397 7.26113 286.847 8.30113C290.058 7.18319 293.505 6.92463 296.847 7.55113C295.706 5.79011 294.076 4.40005 292.157 3.55113C292.157 3.55113 295.877 2.64113 298.367 7.88113C298.367 7.88113 303.247 9.09113 303.767 9.72113C303.767 9.72113 302.047 4.21113 299.297 1.55113C299.297 1.55113 303.767 3.06113 304.987 10.3711L309.567 12.8711C309.567 12.8711 307.677 5.46113 305.397 2.87113C305.397 2.87113 309.727 5.11113 310.667 13.5611L314.767 16.6511C314.767 16.6511 313.627 10.1311 311.707 6.75113C311.707 6.75113 315.267 9.69113 315.907 17.5811L318.397 19.9611C318.397 19.9611 317.477 15.2211 317.097 13.8811C316.717 12.5411 317.027 12.4511 317.027 12.4511C318.617 15.0453 319.458 18.0286 319.457 21.0711C319.457 21.0711 324.297 26.2611 324.647 26.0011Z" fill="#FE4E33"/>
<path opacity="0.1" d="M169.371 66.7223C169.371 66.7223 131.471 62.5023 134.601 89.3923C134.601 89.3923 133.471 94.0523 137.601 96.3923C137.601 96.3923 137.771 94.3923 141.601 95.2923C142.954 95.5835 144.336 95.721 145.721 95.7023C147.591 95.6685 149.399 95.026 150.871 93.8723V93.8723C150.871 93.8723 161.781 90.0023 166.871 72.7523C166.871 72.7523 170.131 69.1023 170.061 68.1123L163.511 70.5323C163.511 70.5323 165.511 75.2623 163.511 79.0223C163.511 79.0223 163.721 70.7123 162.511 70.8423C162.261 70.8423 159.101 72.2823 159.101 72.2823C159.101 72.2823 162.461 80.5323 159.321 86.2823C159.321 86.2823 160.901 76.4023 157.891 72.8423L153.241 75.2423C153.241 75.2423 157.241 83.7923 153.891 90.4323C153.891 90.4323 155.191 80.0523 152.261 75.8423L148.011 78.8423C148.011 78.8423 151.731 87.2523 148.921 92.7623C148.921 92.7623 149.211 80.6223 147.081 79.5923C147.081 79.5923 143.341 82.5923 142.731 83.8323C142.731 83.8323 145.261 89.9323 143.351 92.9823C143.351 92.9823 142.681 84.8523 141.801 84.7723C141.801 84.7723 137.961 89.9423 137.401 93.5923C137.748 90.2083 138.975 86.9743 140.961 84.2123C138.886 84.499 136.939 85.3853 135.361 86.7623C135.361 86.7623 136.101 83.0123 141.901 82.9723C141.901 82.9723 145.051 79.0623 145.901 78.8523C145.901 78.8523 140.171 78.0823 136.601 79.4523C136.601 79.4523 139.851 76.0323 146.991 78.0223L151.201 74.9323C151.201 74.9323 143.591 73.3923 140.371 74.3923C140.371 74.3923 144.231 71.3923 152.291 74.1423L156.821 71.7323C156.821 71.7323 150.431 70.0123 146.561 70.3223C146.561 70.3223 150.731 68.3223 158.141 71.0923L161.361 69.8423C161.361 69.8423 156.671 68.6723 155.291 68.4523C153.911 68.2323 153.861 67.8523 153.861 67.8523C156.884 67.5054 159.944 68.0039 162.701 69.2923C162.701 69.2923 169.441 67.1423 169.371 66.7223Z" fill="#FE4E33"/>
<path opacity="0.1" d="M514.322 343.091C514.322 343.091 476.442 338.871 479.572 365.731C479.572 365.731 478.442 370.391 482.572 372.731C482.572 372.731 482.742 370.731 486.572 371.621C487.924 371.922 489.308 372.059 490.692 372.031C492.563 372.002 494.373 371.359 495.843 370.201V370.201C495.843 370.201 506.753 366.331 511.793 349.091C511.793 349.091 515.053 345.431 514.983 344.451L508.433 346.861C508.433 346.861 510.433 351.601 508.433 355.361C508.433 355.361 508.643 347.041 507.433 347.181C507.183 347.181 504.022 348.611 504.022 348.611C504.022 348.611 507.383 356.861 504.243 362.611C504.243 362.611 505.823 352.741 502.813 349.171L498.163 351.581C498.163 351.581 502.162 360.131 498.822 366.771C498.822 366.771 500.113 356.391 497.183 352.171L492.933 355.171C492.933 355.171 496.653 363.581 493.843 369.081C493.843 369.081 494.133 356.941 492.003 355.921C492.003 355.921 488.273 358.921 487.653 360.161C487.653 360.161 490.192 366.261 488.272 369.311C488.272 369.311 487.603 361.181 486.723 361.101C486.723 361.101 482.882 366.271 482.322 369.921C482.669 366.537 483.897 363.303 485.882 360.541C483.806 360.822 481.858 361.709 480.283 363.091C480.283 363.091 481.022 359.331 486.822 359.291C486.822 359.291 489.982 355.381 490.822 355.181C490.822 355.181 485.092 354.401 481.522 355.771C481.522 355.771 484.773 352.361 491.923 354.351L496.123 351.261C496.123 351.261 488.602 349.841 485.332 350.821C485.332 350.821 489.193 347.821 497.253 350.561L501.783 348.161C501.783 348.161 495.392 346.441 491.522 346.751C491.522 346.751 495.693 344.751 503.103 347.521L506.322 346.261C506.322 346.261 501.633 345.091 500.253 344.881C498.873 344.671 498.822 344.281 498.822 344.281C501.845 343.927 504.906 344.423 507.663 345.711C507.663 345.711 514.422 343.521 514.322 343.091Z" fill="#D6D0C2"/>
<path opacity="0.1" d="M467.242 245.281C467.242 245.281 456.722 208.651 433.062 221.801C433.062 221.801 428.322 222.531 427.732 227.271C427.732 227.271 429.612 226.681 430.262 230.511C430.503 231.887 430.906 233.229 431.462 234.511C432.204 236.234 433.49 237.667 435.122 238.591V238.591C435.122 238.591 442.862 247.191 460.722 245.271C460.722 245.271 465.342 246.891 466.222 246.451L461.492 241.311C461.492 241.311 457.862 244.931 453.662 244.591C453.662 244.591 461.422 241.591 460.822 240.521C460.702 240.301 458.202 237.911 458.202 237.911C458.202 237.911 451.862 244.171 445.382 243.441C445.382 243.441 455.112 241.141 457.252 237.001L453.252 233.621C453.252 233.621 446.872 240.561 439.462 240.021C439.462 240.021 449.542 237.251 452.322 232.941L447.942 230.151C447.942 230.151 441.592 236.801 435.432 236.301C435.432 236.301 446.762 231.931 446.902 229.581C446.902 229.581 442.722 227.261 441.312 227.181C441.312 227.181 436.642 231.841 433.092 231.241C433.092 231.241 440.352 227.511 440.092 226.671C440.092 226.671 433.852 225.101 430.262 225.971C433.514 225.007 436.961 224.907 440.262 225.681C439.205 223.871 437.64 222.411 435.762 221.481C435.762 221.481 439.522 220.731 441.762 226.081C441.762 226.081 446.572 227.501 447.072 228.161C447.072 228.161 445.602 222.571 442.972 219.801C442.972 219.801 447.372 221.501 448.262 228.861L452.722 231.571C452.722 231.571 451.162 224.071 449.002 221.431C449.002 221.431 453.222 223.861 453.792 232.341L457.792 235.611C457.792 235.611 456.942 229.051 455.182 225.611C455.182 225.611 458.612 228.711 458.892 236.611L461.272 239.111C461.272 239.111 460.572 234.331 460.272 232.971C459.972 231.611 460.272 231.421 460.272 231.421C461.752 234.081 462.462 237.1 462.322 240.141C462.322 240.141 466.882 245.521 467.242 245.281Z" fill="#FE4E33"/>
<path opacity="0.1" d="M232.822 327.821C232.822 327.821 212.392 295.641 193.422 314.901C193.422 314.901 189.082 316.901 189.842 321.651C189.842 321.651 191.492 320.551 193.192 324.051C193.803 325.291 194.562 326.453 195.452 327.511C196.645 328.954 198.278 329.966 200.102 330.391V330.391C200.102 330.391 209.952 336.471 226.552 329.591C226.552 329.591 231.442 329.851 232.162 329.181L226.162 325.581C226.162 325.581 223.692 330.081 219.562 330.931C219.562 330.931 226.182 325.931 225.292 325.011C225.122 324.831 222.042 323.251 222.042 323.251C222.042 323.251 217.712 331.031 211.292 332.161C211.292 332.161 219.982 327.211 220.882 322.631L216.092 320.521C216.092 320.521 211.922 328.971 204.662 330.521C204.662 330.521 213.562 325.031 215.012 320.111L210.012 318.671C210.012 318.671 205.792 326.841 199.742 328.091C199.742 328.091 209.382 320.711 208.852 318.411C208.852 318.411 204.192 317.361 202.852 317.681C202.852 317.681 199.682 323.471 196.102 323.891C196.102 323.891 202.022 318.271 201.532 317.531C201.532 317.531 195.102 317.781 191.902 319.631C194.757 317.781 198.046 316.713 201.442 316.531C199.922 315.091 198.013 314.129 195.952 313.761C195.952 313.761 199.342 311.991 202.952 316.491C202.952 316.491 207.952 316.491 208.642 316.991C208.642 316.991 205.642 311.991 202.352 310.121C202.352 310.121 207.052 310.521 209.972 317.331L215.022 318.671C215.022 318.671 211.412 311.921 208.602 309.991C208.602 309.991 213.332 311.131 216.262 319.121L220.982 321.121C220.982 321.121 218.322 315.071 215.652 312.241C215.652 312.241 219.812 314.241 222.302 321.751L225.302 323.481C225.302 323.481 223.302 319.091 222.592 317.881C221.882 316.671 222.162 316.391 222.162 316.391C224.326 318.528 225.853 321.225 226.572 324.181C226.572 324.181 232.552 328.161 232.822 327.821Z" fill="#D6D0C2"/>
<path d="M367.092 163.401C367.092 163.401 347.662 130.611 328.092 149.271C328.092 149.271 323.692 151.171 324.312 155.911C324.312 155.911 325.982 154.851 327.582 158.401C328.154 159.663 328.876 160.851 329.732 161.941C330.88 163.415 332.483 164.47 334.292 164.941V164.941C334.292 164.941 343.942 171.321 360.752 164.941C360.752 164.941 365.632 165.351 366.372 164.701L360.502 160.921C360.502 160.921 357.902 165.331 353.742 166.061C353.742 166.061 360.512 161.231 359.662 160.321C359.482 160.131 356.462 158.451 356.462 158.451C356.462 158.451 351.892 166.101 345.462 167.031C345.462 167.031 354.302 162.351 355.332 157.811L350.612 155.591C350.612 155.591 346.182 163.921 338.872 165.251C338.872 165.251 347.942 160.041 349.542 155.171L344.602 153.571C344.602 153.571 340.122 161.571 334.042 162.671C334.042 162.671 343.902 155.591 343.442 153.281C343.442 153.281 338.822 152.081 337.442 152.361C337.442 152.361 334.092 158.051 330.502 158.361C330.502 158.361 336.592 152.941 336.132 152.181C336.132 152.181 329.692 152.231 326.442 153.981C329.353 152.225 332.673 151.259 336.072 151.181C334.594 149.694 332.713 148.672 330.662 148.241C330.662 148.241 334.112 146.571 337.662 151.181C337.662 151.181 342.662 151.351 343.332 151.861C343.332 151.861 340.502 146.861 337.262 144.801C337.262 144.801 341.942 145.341 344.652 152.241L349.652 153.741C349.652 153.741 346.262 146.881 343.502 144.861C343.502 144.861 348.202 146.151 350.882 154.221L355.532 156.391C355.532 156.391 353.062 150.261 350.532 147.391C350.532 147.391 354.622 149.521 356.892 157.101L359.822 158.921C359.822 158.921 357.942 154.471 357.282 153.241C356.622 152.011 356.902 151.741 356.902 151.741C358.998 153.944 360.442 156.686 361.072 159.661C361.072 159.661 366.802 163.731 367.092 163.401Z" fill="#D6D0C2"/>
<path d="M244.162 232.351C244.162 232.351 245.162 194.251 218.692 199.621C218.692 199.621 213.952 198.891 211.952 203.231C211.952 203.231 213.952 203.231 213.392 207.081C213.209 208.453 213.189 209.843 213.332 211.221C213.513 213.089 214.304 214.846 215.582 216.221C215.582 216.221 220.352 226.761 237.962 230.341C237.962 230.341 241.872 233.291 242.852 233.131L239.852 226.811C239.852 226.811 235.302 229.151 231.392 227.561C231.392 227.561 239.692 227.071 239.462 225.851C239.462 225.601 237.742 222.561 237.742 222.561C237.742 222.561 229.802 226.611 223.852 223.951C223.852 223.951 233.852 224.701 237.122 221.411L234.332 216.981C234.332 216.981 226.152 221.661 219.252 218.901C219.252 218.901 229.702 219.321 233.662 216.051L230.332 212.051C230.332 212.051 222.262 216.471 216.542 214.131C216.542 214.131 228.662 213.401 229.542 211.191C229.542 211.191 226.262 207.721 224.942 207.191C224.942 207.191 219.082 210.191 215.882 208.571C215.882 208.571 223.882 207.231 223.932 206.341C223.932 206.341 218.462 202.951 214.772 202.701C218.175 202.762 221.502 203.713 224.422 205.461C223.967 203.417 222.924 201.55 221.422 200.091C221.422 200.091 225.232 200.521 225.752 206.291C225.752 206.291 229.922 209.111 230.192 209.891C230.192 209.891 230.482 204.121 228.812 200.681C228.812 200.681 232.492 203.631 231.112 210.911L234.542 214.851C234.542 214.851 235.322 207.231 234.072 204.061C234.072 204.061 237.352 207.651 235.332 215.911L238.102 220.221C238.102 220.221 239.282 213.711 238.652 209.881C238.652 209.881 240.972 213.881 238.852 221.491L240.372 224.591C240.372 224.591 241.142 219.821 241.242 218.431C241.342 217.041 241.722 216.951 241.722 216.951C242.324 219.934 242.085 223.025 241.032 225.881C241.032 225.881 243.722 232.481 244.162 232.351Z" fill="#D6D0C2"/>
<path opacity="0.1" d="M287.922 396.765C302.795 396.765 314.852 394.728 314.852 392.215C314.852 389.702 302.795 387.665 287.922 387.665C273.049 387.665 260.992 389.702 260.992 392.215C260.992 394.728 273.049 396.765 287.922 396.765Z" fill="#D6D0C2"/>
<path opacity="0.1" d="M189.752 465.845C204.625 465.845 216.682 463.808 216.682 461.295C216.682 458.782 204.625 456.745 189.752 456.745C174.879 456.745 162.822 458.782 162.822 461.295C162.822 463.808 174.879 465.845 189.752 465.845Z" fill="#FE4E33"/>
<path opacity="0.1" d="M394.012 461.295C408.885 461.295 420.942 459.258 420.942 456.745C420.942 454.232 408.885 452.195 394.012 452.195C379.139 452.195 367.082 454.232 367.082 456.745C367.082 459.258 379.139 461.295 394.012 461.295Z" fill="#FE4E33"/>
<path d="M422.052 405.815C444.259 405.815 462.262 402.77 462.262 399.015C462.262 395.259 444.259 392.215 422.052 392.215C399.844 392.215 381.842 395.259 381.842 399.015C381.842 402.77 399.844 405.815 422.052 405.815Z" fill="#FE4E33" fill-opacity="0.1"/>
<path d="M438.722 387.885C440.558 386.393 441.894 384.377 442.552 382.105C443.052 379.805 442.072 377.055 439.882 376.215C437.422 375.275 434.792 376.975 432.792 378.695C430.792 380.415 428.522 382.385 425.912 382.025C427.252 380.808 428.255 379.265 428.822 377.546C429.39 375.827 429.504 373.991 429.152 372.215C429.039 371.479 428.728 370.788 428.252 370.215C426.882 368.755 424.412 369.385 422.772 370.535C417.572 374.195 416.122 381.255 416.092 387.615C415.572 385.325 416.012 382.935 416.002 380.615C415.992 378.295 415.342 375.615 413.352 374.395C412.131 373.714 410.751 373.369 409.352 373.395C407.012 373.315 404.402 373.545 402.812 375.255C400.812 377.375 401.342 380.945 403.062 383.255C404.782 385.565 407.412 387.055 409.832 388.675C411.769 389.831 413.423 391.407 414.672 393.285C414.815 393.546 414.932 393.821 415.022 394.105H429.682C432.964 392.452 436.006 390.359 438.722 387.885V387.885Z" fill="#D6D0C2"/>
</svg>
