<svg width="55" height="9" viewBox="0 0 55 9" fill="none" xmlns="http://www.w3.org/2000/svg">
<mask maskUnits="userSpaceOnUse" x="0" y="0" width="0" height="0" fill="black">
<rect fill="white" width="0" height="0"/>
</mask>
<path d="M0.526329 4.31924C0.331067 4.5145 0.331067 4.83108 0.526329 5.02634L3.70831 8.20832C3.90357 8.40359 4.22015 8.40359 4.41542 8.20832C4.61068 8.01306 4.61068 7.69648 4.41542 7.50122L1.58699 4.67279L4.41542 1.84436C4.61068 1.6491 4.61068 1.33252 4.41542 1.13726C4.22015 0.941994 3.90357 0.941994 3.70831 1.13726L0.526329 4.31924ZM54.4306 5.02634C54.6259 4.83108 54.6259 4.5145 54.4306 4.31924L51.2486 1.13726C51.0534 0.941994 50.7368 0.941994 50.5415 1.13726C50.3463 1.33252 50.3463 1.6491 50.5415 1.84436L53.3699 4.67279L50.5415 7.50122C50.3463 7.69648 50.3463 8.01306 50.5415 8.20832C50.7368 8.40359 51.0534 8.40359 51.2486 8.20832L54.4306 5.02634ZM0.879883 5.17279H54.077V4.17279H0.879883V5.17279Z" fill="#B5A98C" mask="url(#)"/>
</svg>
