<svg width="40" height="40" viewBox="0 0 40 40" fill="none" xmlns="http://www.w3.org/2000/svg">
<path fill-rule="evenodd" clip-rule="evenodd" d="M7.50488 12.9604V27.0397C7.50488 27.5272 7.69853 27.9947 8.04323 28.3394C8.38793 28.6841 8.85544 28.8778 9.34292 28.8778H30.6568C31.1443 28.8778 31.6118 28.6841 31.9565 28.3394C32.3012 27.9947 32.4949 27.5272 32.4949 27.0397V12.9604C32.4949 12.4729 32.3012 12.0054 31.9565 11.6607C31.6118 11.316 31.1443 11.1223 30.6568 11.1223H9.34292C8.85544 11.1223 8.38793 11.316 8.04323 11.6607C7.69853 12.0054 7.50488 12.4729 7.50488 12.9604V12.9604Z" stroke="#B5A98C"/>
<path d="M7.50488 12.5928L18.8088 22.2315C19.1414 22.5148 19.5639 22.6704 20.0008 22.6704C20.4377 22.6704 20.8602 22.5148 21.1928 22.2315L32.4949 12.5928" stroke="#B5A98C"/>
</svg>
