<svg width="40" height="40" viewBox="0 0 40 40" fill="none" xmlns="http://www.w3.org/2000/svg">
<path fill-rule="evenodd" clip-rule="evenodd" d="M14.3397 24.4737C19.0074 29.9309 23.9249 31.2513 29.0957 28.4386C29.3343 28.3088 29.5391 28.126 29.6939 27.9047C29.8487 27.6834 29.9492 27.4296 29.9876 27.1634C30.026 26.8972 30.0011 26.6259 29.915 26.3708C29.8289 26.1157 29.6839 25.8838 29.4914 25.6935L27.2314 23.4638C26.9183 23.1549 26.4987 22.9738 26.0563 22.9568C25.6139 22.9397 25.1813 23.0879 24.8447 23.3718L22.6287 25.2406C19.7092 24.6177 17.1818 22.1346 15.0467 17.7914C15.8346 16.9984 16.4766 16.3564 16.9761 15.8671C17.3065 15.5424 17.4927 15.1015 17.4936 14.6414C17.4946 14.1812 17.3104 13.7396 16.9813 13.4135L16.9778 13.41L14.1638 10.6337C13.9835 10.4559 13.7661 10.3189 13.5267 10.2322C13.2873 10.1456 13.0317 10.1113 12.7776 10.1317C12.5235 10.1522 12.2769 10.2269 12.055 10.3508C11.833 10.4746 11.641 10.6446 11.4923 10.8489C8.79434 14.557 9.74231 19.0963 14.3397 24.4737Z" stroke="#B5A98C"/>
</svg>
